<svg width="413" height="737" viewBox="0 0 413 737" fill="none" xmlns="http://www.w3.org/2000/svg">
<g clip-path="url(#clip0_319_2418)">
<path d="M110.322 0H341.73C377.721 0 406.897 29.1639 406.897 65.1394V593.704C406.897 629.68 377.721 658.844 341.73 658.844H110.322C74.3311 658.844 45.1548 629.68 45.1548 593.704V65.1394C45.1548 29.1639 74.3311 0 110.322 0Z" fill="#3F3D56"/>
<path d="M51.2575 65.1439V593.705C51.2756 609.358 57.5045 624.365 68.5776 635.433C79.6507 646.502 94.6638 652.728 110.324 652.746H341.727C357.387 652.728 372.4 646.502 383.473 635.433C394.547 624.365 400.775 609.358 400.793 593.705V65.1439C400.775 49.4908 394.547 34.4841 383.473 23.4157C372.4 12.3473 357.387 6.12115 341.727 6.10303H311.468V16.5514C311.467 21.2815 309.587 25.8179 306.241 29.1626C302.895 32.5073 298.357 34.3865 293.625 34.3867C254.449 46.2158 208.464 44.3695 158.426 34.3867C153.694 34.3865 149.156 32.5073 145.81 29.1626C142.464 25.8178 140.584 21.2815 140.583 16.5514V6.10303H110.324C94.6638 6.12115 79.6507 12.3473 68.5776 23.4157C57.5045 34.4841 51.2757 49.4908 51.2575 65.1439Z" fill="white"/>
<path d="M408.561 133.654C409.738 133.653 410.866 133.185 411.698 132.353C412.531 131.522 412.999 130.394 413 129.218V120.344C413 119.168 412.532 118.039 411.7 117.207C410.868 116.375 409.739 115.908 408.561 115.908C407.384 115.908 406.255 116.375 405.423 117.207C404.591 118.039 404.123 119.168 404.123 120.344V129.218C404.124 130.394 404.592 131.522 405.424 132.353C406.256 133.185 407.385 133.653 408.561 133.654Z" fill="#3F3D56"/>
<path d="M408.561 179.154C409.738 179.153 410.866 178.685 411.698 177.853C412.531 177.021 412.999 175.894 413 174.717V150.292C413 149.115 412.532 147.987 411.7 147.155C410.868 146.323 409.739 145.855 408.561 145.855C407.384 145.855 406.255 146.323 405.423 147.155C404.591 147.987 404.123 149.115 404.123 150.292V174.717C404.124 175.894 404.592 177.021 405.424 177.853C406.256 178.685 407.385 179.153 408.561 179.154Z" fill="#3F3D56"/>
<path d="M408.561 215.733C409.738 215.731 410.866 215.263 411.698 214.432C412.531 213.6 412.999 212.472 413 211.296V186.87C413 185.694 412.532 184.565 411.7 183.733C410.868 182.901 409.739 182.434 408.561 182.434C407.384 182.434 406.255 182.901 405.423 183.733C404.591 184.565 404.123 185.694 404.123 186.87V211.296C404.124 212.472 404.592 213.6 405.424 214.432C406.256 215.263 407.385 215.731 408.561 215.733Z" fill="#3F3D56"/>
<path d="M44.5986 127.301C45.7741 127.3 46.9019 127.766 47.7342 128.596C48.5665 129.425 49.0351 130.552 49.0371 131.727V191.333C49.0371 192.51 48.5695 193.638 47.7371 194.47C46.9047 195.302 45.7757 195.77 44.5986 195.77C43.4214 195.77 42.2924 195.302 41.46 194.47C40.6276 193.638 40.16 192.51 40.16 191.333V131.727C40.1639 130.552 40.6331 129.427 41.465 128.598C42.2968 127.768 43.4236 127.302 44.5986 127.301Z" fill="#3F3D56"/>
<path d="M324.688 32.2469H354.649C356.12 32.2469 357.531 31.6626 358.572 30.6226C359.612 29.5825 360.197 28.1719 360.197 26.7011C360.197 25.2303 359.612 23.8196 358.572 22.7796C357.531 21.7396 356.12 21.1553 354.649 21.1553H324.688C323.217 21.1553 321.806 21.7396 320.765 22.7796C319.725 23.8196 319.14 25.2303 319.14 26.7011C319.14 28.1719 319.725 29.5825 320.765 30.6226C321.806 31.6626 323.217 32.2469 324.688 32.2469Z" fill="#E6E6E6"/>
<path d="M150.616 587.555C158.965 588.077 163.58 577.709 157.263 571.665C157.032 570.747 156.866 570.087 156.634 569.168C156.717 568.968 156.8 568.768 156.884 568.568C165.328 548.443 182.424 559.742 202.315 568.737C218.721 576.157 235.257 585.823 221.536 623.459C218.654 631.365 222.11 640.314 220.257 648.507C237.709 610.454 246.772 569.094 246.83 527.232C246.834 516.727 246.25 506.23 245.081 495.791C244.115 487.232 242.775 478.735 241.061 470.299C233.862 435.187 220.359 401.669 201.206 371.369C203.644 371.402 206.086 371.428 208.532 371.448C212.933 378.632 217.035 385.986 220.837 393.51C219.966 386.204 219.823 378.829 220.41 371.494C250.071 371.484 279.711 370.536 305.917 368.65C304.923 448.93 275.276 465.67 238.921 427.221C237.903 427.743 236.911 428.264 235.893 428.76C244.65 453.566 250.142 479.405 252.233 505.627C253.417 521.098 253.347 536.638 252.024 552.097C252.051 551.914 252.077 551.732 252.103 551.549C255.444 534.359 264.618 518.849 278.076 507.637C298.063 491.225 326.301 485.181 347.864 471.989C358.244 465.638 371.545 473.845 369.733 485.874C369.704 486.066 369.675 486.258 369.645 486.45C366.431 487.758 363.301 489.266 360.274 490.964C358.542 491.941 356.847 492.977 355.188 494.074C345.733 500.324 349 514.975 360.203 516.704L360.457 516.742C360.64 516.769 360.797 516.795 360.979 516.821C355.487 529.929 347.778 541.994 338.191 552.488C335.518 634.942 292.117 624.309 245.681 593.062H245.655C240.94 613.544 234.107 633.481 225.269 652.552H152.441C152.18 651.743 151.945 650.908 151.71 650.099C158.451 650.522 165.218 650.119 171.862 648.899C166.458 642.271 161.055 635.592 155.652 628.964C155.531 628.84 155.418 628.71 155.312 628.573C152.571 625.181 149.804 621.815 147.064 618.423L147.062 618.419C146.916 608.022 148.11 597.649 150.614 587.556L150.616 587.555Z" fill="#9124A2"/>
<path d="M228.219 336.108C235.284 319.071 248.527 304.722 260.188 289.994C274.196 272.303 302.92 280.024 305.388 302.45C305.412 302.667 305.435 302.884 305.458 303.101C303.726 304.078 302.03 305.115 300.371 306.211C290.916 312.462 294.184 327.112 305.387 328.841L305.641 328.88C305.023 335.12 303.933 341.304 302.378 347.379C304.237 354.34 305.423 361.463 305.917 368.65C279.711 370.536 250.072 371.484 220.41 371.495C221.372 358.455 224.272 345.615 228.219 336.108Z" fill="#E6E6E6"/>
<path d="M151.972 314.517C149.372 309.347 147.534 303.828 146.516 298.131C148.108 298.34 152.52 274.1 151.319 272.613C153.538 269.247 157.51 267.574 159.933 264.29C171.986 247.956 188.592 250.808 197.261 273.005C215.78 282.347 215.959 297.841 204.596 312.743C197.367 322.223 196.373 335.051 190.03 345.201C190.683 346.036 191.362 346.845 192.014 347.68C198.764 356.353 205.02 365.399 210.751 374.776C208.306 374.756 205.864 374.729 203.425 374.697C197.673 365.6 191.414 356.833 184.679 348.437C170.564 340.738 159.149 328.9 151.972 314.517Z" fill="#E6E6E6"/>
<g opacity="0.1" filter="url(#filter0_d_319_2418)">
<path d="M51.9919 64.9036V347.23C51.9919 379.784 401.528 379.784 401.528 347.23V64.9036C401.51 49.2506 395.281 34.2439 384.208 23.1755C373.135 12.1071 358.122 5.88091 342.462 5.86279H312.202V16.3111C312.202 21.0413 310.322 25.5776 306.976 28.9223C303.629 32.2671 299.091 34.1462 294.359 34.1465C256.847 45.9228 210.538 43.9842 159.161 34.1465C154.429 34.1462 149.89 32.2671 146.544 28.9223C143.198 25.5776 141.318 21.0413 141.318 16.3111V5.86279H111.058C95.3982 5.88092 80.3851 12.1071 69.312 23.1755C58.2389 34.2439 52.01 49.2506 51.9919 64.9036Z" fill="black"/>
</g>
<path d="M40.1601 159.744H48.1606V161.962H40.1601V159.744Z" fill="white"/>
<path opacity="0.1" d="M401.025 341.705V347.251C401.025 379.805 51.4894 379.805 51.4894 347.251V341.705C51.4894 374.259 401.025 374.259 401.025 341.705Z" fill="black"/>
<path d="M92.2941 421.059C90.1232 420.617 88.2106 419.345 86.9632 417.515C85.7158 415.685 85.2322 413.44 85.6152 411.259C85.7 410.817 85.8213 410.382 85.9778 409.96L63.2427 390.902L68.8586 375.968L97.179 405.441C98.8799 406.226 100.273 407.551 101.142 409.21C102.01 410.869 102.304 412.769 101.979 414.612C101.585 416.728 100.366 418.6 98.5905 419.817C96.8152 421.034 94.629 421.497 92.5127 421.103C92.4396 421.089 92.3667 421.074 92.2941 421.059Z" fill="#A0616A"/>
<path d="M81.5885 308.601L90.6044 315.787C90.6044 315.787 101.379 335.368 93.6557 339.429C85.9325 343.49 61.9227 356.996 61.9227 356.996C61.9227 356.996 71.8456 366.87 73.0161 371.665C74.1865 376.461 71.5956 380.722 75.708 379.72C79.8204 378.717 79.9373 381.982 80.9405 386.093C81.9438 390.204 88.6312 393.989 88.6312 393.989L75.8486 403.417C75.8486 403.417 69.9319 405.505 69.4468 400.542C68.9617 395.579 70.3094 396.28 66.197 397.282C62.0846 398.285 58.6194 391.853 56.4291 385.854C54.2388 379.855 31.8907 351.933 31.8907 351.933L55.2722 325.925C62.4094 317.986 71.473 312.02 81.5885 308.601Z" fill="#9124A2"/>
<path d="M83.6425 716.158L92.9512 716.079L97.0713 679.354L83.3329 679.47L83.6425 716.158Z" fill="#E5B1B1"/>
<path d="M113.459 730.953C113.467 732.056 113.037 733.117 112.264 733.904C111.49 734.691 110.436 735.139 109.333 735.149L90.8255 735.304L87.5856 728.739L86.3956 735.337L79.4124 735.401L81.1758 711.868L83.6053 711.706L93.5151 711.023L96.7122 710.809L96.7683 717.468L111.635 727.547C112.192 727.925 112.649 728.432 112.967 729.026C113.284 729.619 113.453 730.28 113.459 730.953Z" fill="#2F2E41"/>
<path d="M169.102 716.158L178.41 716.079L182.531 679.354L168.793 679.47L169.102 716.158Z" fill="#E5B1B1"/>
<path d="M198.918 730.953C198.926 732.056 198.496 733.117 197.723 733.904C196.949 734.691 195.895 735.139 194.792 735.149L176.284 735.304L173.045 728.739L171.855 735.337L164.871 735.401L166.635 711.868L169.064 711.706L178.974 711.023L182.171 710.809L182.227 717.468L197.094 727.547C197.651 727.925 198.108 728.432 198.426 729.026C198.743 729.619 198.912 730.28 198.918 730.953Z" fill="#2F2E41"/>
<g filter="url(#filter1_d_319_2418)">
<path d="M145.02 405.164C145.02 405.164 162.894 413.965 158.234 419.263C153.574 424.56 157.404 427.556 163.212 432.532C169.02 437.508 180.713 495.799 180.713 495.799L195.853 586.095C195.853 586.095 191.836 664.939 189.14 667.747C186.444 670.555 182.295 666.408 186.444 670.555C190.592 674.702 193.911 671.384 190.592 674.702C187.274 678.019 186.444 687.142 186.444 687.142L164.944 685.331C164.944 685.331 150.949 624.727 160.399 597.88L123.324 499.669L112.115 594.433C112.115 594.433 105.963 671.384 101.814 673.872C97.6658 676.36 94.677 676.528 98.2457 679.762C101.814 682.995 101.814 678.019 101.814 682.995V691.249L81.7444 694.002C81.7444 694.002 72.422 620.231 76.7469 586.095L63.648 471.511L73.8519 419.876L84.3906 405.993L145.02 405.164Z" fill="#2F2E41"/>
</g>
<g filter="url(#filter2_d_319_2418)">
<path d="M231.271 377.236C229.482 378.542 227.253 379.098 225.06 378.787C222.866 378.476 220.881 377.321 219.526 375.569C219.256 375.209 219.016 374.827 218.81 374.427L189.403 378.386L182.143 364.178L223.013 363.107C224.739 362.379 226.657 362.242 228.469 362.718C230.28 363.194 231.883 364.256 233.028 365.738C233.671 366.588 234.14 367.556 234.409 368.587C234.677 369.618 234.74 370.692 234.594 371.748C234.447 372.803 234.094 373.819 233.555 374.738C233.016 375.657 232.301 376.461 231.45 377.104C231.391 377.149 231.331 377.193 231.271 377.236Z" fill="#E5B1B1"/>
</g>
<path d="M140.905 309.396L152.292 307.576C152.292 307.576 165.958 315.034 163.759 323.475C161.56 331.917 163.443 356.523 163.443 356.523C163.443 356.523 177.428 355.842 181.763 358.208C186.097 360.573 187.503 365.358 189.531 361.644C191.56 357.93 189.421 355.96 193.136 357.987C196.852 360.015 208.788 361.708 208.788 361.708L213.586 378.039C213.586 378.039 206.919 387.203 202.923 384.218C198.926 381.234 198.14 376.787 196.112 380.501C194.083 384.215 193.517 391.137 187.606 388.714C181.695 386.292 139.471 375.3 139.471 375.3L134.368 324.308L140.905 309.396Z" fill="#9124A2"/>
<g filter="url(#filter3_d_319_2418)">
<path d="M152.018 417.754C152.018 417.754 160.057 404.929 158.527 403.048C156.996 401.167 155.079 404.418 158.527 401.134C161.974 397.85 142.64 375.932 141.37 372.704C140.101 369.476 160.723 313.106 160.723 313.106L143.159 302.532L128.314 281.656L101.765 285.901L92.4244 304.828L79.2306 309.481L78.121 310.591V344.975C78.121 344.975 72.249 374.324 85.1682 384.428C85.1682 384.428 79.0041 397.85 80.6635 400.338C82.3229 402.826 52.4865 435.519 75.9017 439.254C101.55 443.345 156.259 416.304 152.018 417.754Z" fill="#9124A2"/>
</g>
<path d="M283.701 735.68C283.702 735.854 283.668 736.025 283.602 736.186C283.536 736.346 283.438 736.492 283.316 736.615C283.193 736.737 283.047 736.834 282.887 736.901C282.726 736.967 282.554 737 282.381 737H1.32024C0.970031 737 0.634126 736.861 0.38649 736.613C0.138853 736.366 -0.000231481 736.03 -0.000231481 735.68C-0.000231481 735.33 0.138853 734.994 0.38649 734.747C0.634126 734.499 0.970031 734.36 1.32024 734.36H282.381C282.554 734.36 282.726 734.393 282.887 734.46C283.047 734.526 283.193 734.623 283.316 734.746C283.438 734.868 283.535 735.014 283.602 735.174C283.668 735.335 283.702 735.507 283.701 735.68Z" fill="#CCCCCC"/>
<path d="M111.129 286.882C96.198 286.882 84.0943 274.783 84.0943 259.859C84.0943 244.934 96.198 232.836 111.129 232.836C126.059 232.836 138.163 244.934 138.163 259.859C138.163 274.783 126.059 286.882 111.129 286.882Z" fill="#E5B1B1"/>
<path d="M90.2389 239.881C90.5171 237.449 92.1846 234.443 93.3445 232.287C94.5044 230.131 96.7443 228.371 99.1885 228.521C100.187 228.637 101.143 228.992 101.975 229.557C102.806 230.122 103.489 230.88 103.964 231.765C104.897 233.548 105.406 235.523 105.45 237.534C105.705 242.023 104.955 246.512 103.255 250.674C101.554 254.836 98.9463 258.566 95.6205 261.593C93.7258 263.291 91.4456 264.803 88.9011 264.861C87.7455 264.833 86.6072 264.575 85.553 264.101C84.4988 263.627 83.5501 262.947 82.7628 262.101C78.6442 257.978 78.0214 251.2 80.2211 245.804C82.4207 240.408 83.4022 238.309 88.4304 235.361" fill="#2F2E41"/>
<g filter="url(#filter4_d_319_2418)">
<path d="M128.216 278.746C127.764 281.15 131.924 292.584 130.595 294.645C130.595 294.645 116.831 299.423 111.568 299.767C105.139 300.182 99.9683 297.546 93.9551 293.578C93.8462 291.426 93.2229 289.331 92.1376 287.468C92.2286 288.911 91.9353 290.352 91.2877 291.644C68.7667 286.052 74.2801 265.85 87.8822 256.386L96.9245 235.597C94.2118 236.501 102.401 222.536 111.036 232.65C121.842 221.65 142.774 237.485 145.397 251.631C142.873 248.438 141.559 248.814 140.912 251.016C140.168 249.164 138.989 247.518 137.476 246.217C138.229 247.704 138.613 249.35 138.597 251.016C121.552 252.074 124.725 263.568 138.695 280.786C133.529 277.571 137.015 291.424 134.257 294.735C134.121 292.421 128.705 280.997 128.216 278.746Z" fill="#28282F"/>
</g>
<path d="M103.619 256.608C103.401 256.608 103.191 256.529 103.026 256.386C102.862 256.242 102.755 256.045 102.725 255.829C102.695 255.613 102.744 255.393 102.863 255.211C102.982 255.028 103.163 254.895 103.372 254.835C103.567 253.723 103.587 252.587 103.434 251.468C103.14 246.476 102.648 238.12 110.764 232.479C110.961 232.343 111.204 232.291 111.439 232.333C111.674 232.376 111.883 232.51 112.02 232.707C112.156 232.903 112.21 233.145 112.168 233.381C112.126 233.616 111.992 233.825 111.796 233.963C104.513 239.025 104.95 246.45 105.24 251.362C105.405 254.171 105.524 256.2 103.82 256.586C103.754 256.601 103.687 256.608 103.619 256.608Z" fill="#9124A2"/>
<path d="M104.041 236.854C98.5217 234.564 92.6432 233.262 86.6734 233.007C81.9382 232.806 76.2888 233.862 74.3639 238.191C73.1961 240.817 73.8182 243.895 74.8864 246.563C75.9546 249.232 80.9468 254.618 78.0722 254.559C70.8521 254.412 67.7702 260.865 71.4328 270.894C73.5569 276.71 60.3766 276.486 54.2317 277.264C58.8485 278.976 63.536 280.705 68.443 281.115C73.3501 281.526 78.5906 280.46 82.2545 277.171C86.2192 273.612 87.7428 268.085 88.4171 262.801C89.0915 257.518 89.1264 252.076 90.9182 247.06C92.7101 242.043 96.826 237.371 102.136 236.927" fill="#28282F"/>
<g filter="url(#filter5_d_319_2418)">
<path d="M225.981 180.551C217.495 180.551 210.615 173.674 210.615 165.192C210.615 156.709 217.495 149.832 225.981 149.832C234.468 149.832 241.347 156.709 241.347 165.192C241.347 173.674 234.468 180.551 225.981 180.551Z" fill="#9124A2"/>
</g>
<g filter="url(#filter6_d_319_2418)">
<path d="M197.458 199.382H254.209C259.828 199.376 265.216 197.142 269.189 193.17C273.163 189.198 275.398 183.813 275.405 178.196V152.187C275.398 146.57 273.163 141.185 269.19 137.213C265.216 133.241 259.828 131.007 254.209 131H197.458C191.838 131.007 186.451 133.241 182.477 137.213C178.504 141.185 176.269 146.57 176.262 152.187V178.196C176.269 183.813 178.504 189.198 182.477 193.17C186.451 197.142 191.838 199.376 197.458 199.382ZM254.209 133.219C259.24 133.225 264.064 135.225 267.621 138.781C271.179 142.337 273.18 147.158 273.186 152.187V178.196C273.18 183.225 271.179 188.046 267.621 191.602C264.063 195.158 259.24 197.158 254.209 197.164H197.458C192.427 197.158 187.603 195.158 184.046 191.602C180.488 188.046 178.487 183.225 178.482 178.196V152.187C178.487 147.158 180.488 142.337 184.046 138.781C187.603 135.225 192.427 133.225 197.458 133.219L254.209 133.219Z" fill="white"/>
</g>
<path d="M257.57 185.264H207.198C204.583 185.264 201.994 184.749 199.579 183.749C197.163 182.749 194.968 181.283 193.12 179.435C191.271 177.587 189.804 175.393 188.804 172.978C187.803 170.564 187.288 167.976 187.288 165.363V143.597C187.292 141.183 187.737 138.79 188.601 136.537C186.144 138.386 184.15 140.781 182.777 143.533C181.404 146.284 180.689 149.317 180.689 152.392V174.158C180.689 176.771 181.204 179.359 182.204 181.774C183.205 184.188 184.671 186.382 186.52 188.23C188.369 190.078 190.564 191.544 192.979 192.544C195.395 193.545 197.984 194.059 200.598 194.059H250.971C255.008 194.057 258.949 192.828 262.27 190.534C265.592 188.241 268.137 184.991 269.567 181.218C266.119 183.843 261.905 185.264 257.57 185.264Z" fill="#9124A2"/>
<path d="M224.96 84.7432C235.48 84.7432 244.728 89.5038 249.963 96.6497C244.366 92.5778 237.608 90.4104 230.686 90.4667C214.395 90.4667 201.141 101.874 201.141 115.895V127.55H195.415V110.171C195.415 96.1502 208.669 84.7432 224.96 84.7432Z" fill="#9124A2"/>
<g filter="url(#filter7_d_319_2418)">
<path d="M191.48 133.515H260.187V113.308C260.187 97.0053 244.776 83.7419 225.834 83.7419C206.891 83.7419 191.48 97.0053 191.48 113.308V133.515ZM257.968 131.296H193.7V113.308C193.7 98.2282 208.115 85.9603 225.834 85.9603C243.553 85.9603 257.968 98.2282 257.968 113.308V131.296Z" fill="white"/>
</g>
<path d="M208.238 125.8H243.43C245.013 125.798 246.531 125.169 247.65 124.05C248.77 122.931 249.399 121.413 249.401 119.831V111.789C249.401 100.578 238.828 91.4563 225.834 91.4563C212.839 91.4563 202.266 100.578 202.266 111.789V119.831C202.268 121.413 202.898 122.931 204.017 124.05C205.136 125.169 206.654 125.798 208.238 125.8ZM225.834 93.6746C237.605 93.6746 247.182 101.8 247.182 111.789V119.831C247.181 120.825 246.785 121.779 246.082 122.482C245.378 123.185 244.424 123.581 243.43 123.582H208.238C207.243 123.581 206.289 123.185 205.585 122.482C204.882 121.779 204.486 120.825 204.485 119.831V111.789C204.485 101.8 214.062 93.6746 225.834 93.6746Z" fill="white"/>
</g>
<defs>
<filter id="filter0_d_319_2418" x="47.9917" y="5.86279" width="357.536" height="373.783" filterUnits="userSpaceOnUse" color-interpolation-filters="sRGB">
<feFlood flood-opacity="0" result="BackgroundImageFix"/>
<feColorMatrix in="SourceAlpha" type="matrix" values="0 0 0 0 0 0 0 0 0 0 0 0 0 0 0 0 0 0 127 0" result="hardAlpha"/>
<feOffset dy="4"/>
<feGaussianBlur stdDeviation="2"/>
<feComposite in2="hardAlpha" operator="out"/>
<feColorMatrix type="matrix" values="0 0 0 0 0 0 0 0 0 0 0 0 0 0 0 0 0 0 0.25 0"/>
<feBlend mode="normal" in2="BackgroundImageFix" result="effect1_dropShadow_319_2418"/>
<feBlend mode="normal" in="SourceGraphic" in2="effect1_dropShadow_319_2418" result="shape"/>
</filter>
<filter id="filter1_d_319_2418" x="59.6479" y="405.164" width="140.205" height="296.839" filterUnits="userSpaceOnUse" color-interpolation-filters="sRGB">
<feFlood flood-opacity="0" result="BackgroundImageFix"/>
<feColorMatrix in="SourceAlpha" type="matrix" values="0 0 0 0 0 0 0 0 0 0 0 0 0 0 0 0 0 0 127 0" result="hardAlpha"/>
<feOffset dy="4"/>
<feGaussianBlur stdDeviation="2"/>
<feComposite in2="hardAlpha" operator="out"/>
<feColorMatrix type="matrix" values="0 0 0 0 0 0 0 0 0 0 0 0 0 0 0 0 0 0 0.25 0"/>
<feBlend mode="normal" in2="BackgroundImageFix" result="effect1_dropShadow_319_2418"/>
<feBlend mode="normal" in="SourceGraphic" in2="effect1_dropShadow_319_2418" result="shape"/>
</filter>
<filter id="filter2_d_319_2418" x="178.144" y="362.439" width="60.5273" height="24.4321" filterUnits="userSpaceOnUse" color-interpolation-filters="sRGB">
<feFlood flood-opacity="0" result="BackgroundImageFix"/>
<feColorMatrix in="SourceAlpha" type="matrix" values="0 0 0 0 0 0 0 0 0 0 0 0 0 0 0 0 0 0 127 0" result="hardAlpha"/>
<feOffset dy="4"/>
<feGaussianBlur stdDeviation="2"/>
<feComposite in2="hardAlpha" operator="out"/>
<feColorMatrix type="matrix" values="0 0 0 0 0 0 0 0 0 0 0 0 0 0 0 0 0 0 0.25 0"/>
<feBlend mode="normal" in2="BackgroundImageFix" result="effect1_dropShadow_319_2418"/>
<feBlend mode="normal" in="SourceGraphic" in2="effect1_dropShadow_319_2418" result="shape"/>
</filter>
<filter id="filter3_d_319_2418" x="62.896" y="281.656" width="101.827" height="166.02" filterUnits="userSpaceOnUse" color-interpolation-filters="sRGB">
<feFlood flood-opacity="0" result="BackgroundImageFix"/>
<feColorMatrix in="SourceAlpha" type="matrix" values="0 0 0 0 0 0 0 0 0 0 0 0 0 0 0 0 0 0 127 0" result="hardAlpha"/>
<feOffset dy="4"/>
<feGaussianBlur stdDeviation="2"/>
<feComposite in2="hardAlpha" operator="out"/>
<feColorMatrix type="matrix" values="0 0 0 0 0 0 0 0 0 0 0 0 0 0 0 0 0 0 0.25 0"/>
<feBlend mode="normal" in2="BackgroundImageFix" result="effect1_dropShadow_319_2418"/>
<feBlend mode="normal" in="SourceGraphic" in2="effect1_dropShadow_319_2418" result="shape"/>
</filter>
<filter id="filter4_d_319_2418" x="72.0273" y="228.957" width="77.3696" height="78.8528" filterUnits="userSpaceOnUse" color-interpolation-filters="sRGB">
<feFlood flood-opacity="0" result="BackgroundImageFix"/>
<feColorMatrix in="SourceAlpha" type="matrix" values="0 0 0 0 0 0 0 0 0 0 0 0 0 0 0 0 0 0 127 0" result="hardAlpha"/>
<feOffset dy="4"/>
<feGaussianBlur stdDeviation="2"/>
<feComposite in2="hardAlpha" operator="out"/>
<feColorMatrix type="matrix" values="0 0 0 0 0 0 0 0 0 0 0 0 0 0 0 0 0 0 0.25 0"/>
<feBlend mode="normal" in2="BackgroundImageFix" result="effect1_dropShadow_319_2418"/>
<feBlend mode="normal" in="SourceGraphic" in2="effect1_dropShadow_319_2418" result="shape"/>
</filter>
<filter id="filter5_d_319_2418" x="206.615" y="149.832" width="38.7319" height="38.7188" filterUnits="userSpaceOnUse" color-interpolation-filters="sRGB">
<feFlood flood-opacity="0" result="BackgroundImageFix"/>
<feColorMatrix in="SourceAlpha" type="matrix" values="0 0 0 0 0 0 0 0 0 0 0 0 0 0 0 0 0 0 127 0" result="hardAlpha"/>
<feOffset dy="4"/>
<feGaussianBlur stdDeviation="2"/>
<feComposite in2="hardAlpha" operator="out"/>
<feColorMatrix type="matrix" values="0 0 0 0 0 0 0 0 0 0 0 0 0 0 0 0 0 0 0.25 0"/>
<feBlend mode="normal" in2="BackgroundImageFix" result="effect1_dropShadow_319_2418"/>
<feBlend mode="normal" in="SourceGraphic" in2="effect1_dropShadow_319_2418" result="shape"/>
</filter>
<filter id="filter6_d_319_2418" x="172.262" y="131" width="107.143" height="76.3816" filterUnits="userSpaceOnUse" color-interpolation-filters="sRGB">
<feFlood flood-opacity="0" result="BackgroundImageFix"/>
<feColorMatrix in="SourceAlpha" type="matrix" values="0 0 0 0 0 0 0 0 0 0 0 0 0 0 0 0 0 0 127 0" result="hardAlpha"/>
<feOffset dy="4"/>
<feGaussianBlur stdDeviation="2"/>
<feComposite in2="hardAlpha" operator="out"/>
<feColorMatrix type="matrix" values="0 0 0 0 0 0 0 0 0 0 0 0 0 0 0 0 0 0 0.25 0"/>
<feBlend mode="normal" in2="BackgroundImageFix" result="effect1_dropShadow_319_2418"/>
<feBlend mode="normal" in="SourceGraphic" in2="effect1_dropShadow_319_2418" result="shape"/>
</filter>
<filter id="filter7_d_319_2418" x="187.48" y="83.7419" width="76.7065" height="57.7727" filterUnits="userSpaceOnUse" color-interpolation-filters="sRGB">
<feFlood flood-opacity="0" result="BackgroundImageFix"/>
<feColorMatrix in="SourceAlpha" type="matrix" values="0 0 0 0 0 0 0 0 0 0 0 0 0 0 0 0 0 0 127 0" result="hardAlpha"/>
<feOffset dy="4"/>
<feGaussianBlur stdDeviation="2"/>
<feComposite in2="hardAlpha" operator="out"/>
<feColorMatrix type="matrix" values="0 0 0 0 0 0 0 0 0 0 0 0 0 0 0 0 0 0 0.25 0"/>
<feBlend mode="normal" in2="BackgroundImageFix" result="effect1_dropShadow_319_2418"/>
<feBlend mode="normal" in="SourceGraphic" in2="effect1_dropShadow_319_2418" result="shape"/>
</filter>
<clipPath id="clip0_319_2418">
<rect width="413" height="737" fill="white" transform="matrix(-1 0 0 1 413 0)"/>
</clipPath>
</defs>
</svg>
